<svg xmlns="http://www.w3.org/2000/svg" viewBox="0 0 64 64" role="img" aria-label="CEIP Belesar">
  <circle cx="32" cy="32" r="32" fill="#efe6d0"/>
  <!-- chan -->
  <rect x="12" y="45" width="40" height="5" rx="2.5" fill="#3fa06a" stroke="#1f4034" stroke-width="1"/>
  <!-- tronco -->
  <path d="M30 46 C30 38 29 32 31 24 L33 24 C35 32 34 38 34 46 Z" fill="#d9a441" stroke="#1f4034" stroke-width="1.2"/>
  <path d="M32 24 L32 46" stroke="#9c5a2a" stroke-width="1.1" stroke-linecap="round"/>
  <!-- pólas -->
  <g stroke="#1f4034" stroke-width="1.2" fill="none" stroke-linecap="round">
    <path d="M32 30 L23 24"/>
    <path d="M32 30 L41 24"/>
    <path d="M32 26 L32 18"/>
  </g>
  <!-- follas verdes -->
  <path d="M24 33 q-7 -1 -9 -6 q6 -2 9 2 q-2 2 0 4 Z" fill="#5aa17f" stroke="#1f4034" stroke-width="1"/>
  <path d="M40 33 q7 -1 9 -6 q-6 -2 -9 2 q2 2 0 4 Z" fill="#5aa17f" stroke="#1f4034" stroke-width="1"/>
  <!-- libros abertos (follaxe) -->
  <g stroke="#1f4034" stroke-width="1.1" stroke-linejoin="round">
    <!-- superior central -->
    <path d="M32 17 L25 14 L25 9 L32 11 Z" fill="#f5eed7"/>
    <path d="M32 17 L39 14 L39 9 L32 11 Z" fill="#efe4c8"/>
    <!-- esquerda -->
    <path d="M23 24 L16 22 L16 16 L23 18 Z" fill="#f5eed7"/>
    <path d="M23 24 L30 22 L30 16 L23 18 Z" fill="#efe4c8"/>
    <!-- dereita -->
    <path d="M41 24 L34 22 L34 16 L41 18 Z" fill="#f5eed7"/>
    <path d="M41 24 L48 22 L48 16 L41 18 Z" fill="#efe4c8"/>
  </g>
  <circle cx="32" cy="11.5" r="1.3" fill="#d9742b"/>
  <circle cx="23" cy="18.5" r="1.2" fill="#d9742b"/>
  <circle cx="41" cy="18.5" r="1.2" fill="#d9742b"/>
</svg>
